<svg width="847" height="60" fill="none" xmlns="http://www.w3.org/2000/svg">
<path fill-rule="evenodd" clip-rule="evenodd" d="M0 0H1334V90H0V0V0Z" fill="#4890F8"/>
<path d="M0 0H1334V90H0V0V0ZM1333.83 0.0935122H0.167616V89.9079H1333.83V0.0935122V0.0935122Z" fill="#4890F8"/>
<path fill-rule="evenodd" clip-rule="evenodd" d="M0 0H1334V19.8562H0V0V0Z" fill="#2068E0"/>
<path d="M1334 19.9497H0V19.7627H1333.83V0.0935122H0V0H1334V19.9497V19.9497Z" fill="#2068E0"/>
<path fill-rule="evenodd" clip-rule="evenodd" d="M0 28.751H1334V38.6784H0V28.751V28.751Z" fill="#2068E0"/>
<path d="M0 28.6572H1334V38.7717H0V38.586H1333.83V28.8443H0V28.6572V28.6572Z" fill="#2068E0"/>
<path fill-rule="evenodd" clip-rule="evenodd" d="M0 46.7139H1334V51.6783H0V46.7139V46.7139Z" fill="#2068E0"/>
<path d="M0 46.6201H1334V46.8071H0.167616V51.5845H1334V51.7702H0V46.6201V46.6201Z" fill="#2068E0"/>
</svg>
