<svg width="38" height="63" fill="none" xmlns="http://www.w3.org/2000/svg"><path fill-rule="evenodd" clip-rule="evenodd" d="m11.81 54.728.115-3.57 3.549.005.064 3.502-3.728.063zm7.483-3.703-3.669.035.013-3.44 3.005-.005.651 3.41zm3.615-6.892 3.376.18.032 2.852-3.386.037-3.687.163-.008-3.262 3.673.03zm-.008-3.951 3.52.02.057 3.64-3.591-.044.014-3.616zm3.691-18.138 3.296.074-.16 3.427-3.16.06.024-3.56zM4.67 54.954l7.14-.226.034.484 3.814-.095c1.804-.29 2.18.083 3.456-.68l-3.164.062.1-2.851 3.392-.17-.148-.453.163-3.212 3.439.015 3.588-.26.39-3.623-.018-3.742-.319-3.64 3.73.368 3.382-.15-.064 3.37.385-3.512 3.5-.239-3.569-.213-3.693.239.015-10.608c.626.02 1.312.086 1.935.015l1.752-.417-3.461-.036-.026-3.248 3.377-.027-.006-.104-3.524-.352-3.359-.009-.083-3.277-.285 3.7-3.71.006.011-3.748-3.547-.104-.053-3.648-3.577.062-.065-3.47 3.744-.056.002-.439-3.31-.01-.19-3.536h-.291l-.052 3.885-3.628.014.061-3.7-7.302-.096.034 47.73zm29.24-29.538-1.752.417c-.623.07-1.309.004-1.935-.015l-.015 10.608 3.693-.24-.004-10.412 3.482-.052-3.418-.23-.167-3.49.006.103.11 3.31zm-7.082-7.053 3.33.166-3.44-.387-.329-3.47.111 3.55-3.038.008-.553.008.06-3.657-3.725-.012.053 3.649 3.547.103-.012 3.747 3.711-.006.285-3.699zM4.61 58.605l7.346-.013-.113-3.38-.033-.484-7.14.225-.06 3.652zm.025-51.382 7.302.095.003-3.734-7.318-.047.013 3.686zm10.92-.104-3.618.2-.061 3.7 3.628-.014.052-3.886zm7.331 36.68 3.59.042-.057-3.64-3.52-.02-.013 3.617zM11.81 54.727l3.728-.063-.064-3.502-3.549-.005-.115 3.57zm7.433-40.16.102-3.463-3.744.056.065 3.47 3.577-.062zm7.612 25.636 3.424.063-.013-3.336-3.73-.367.319 3.64zm-3.925 6.998-.022-3.07-3.673-.03.008 3.263 3.687-.163zm-3.637 3.823-.651-3.41-3.005.006-.013 3.439 3.67-.035zm7.274-25.42 3.16-.06.16-3.427-3.296-.074-.024 3.56z" fill="#F8C850"/><path fill-rule="evenodd" clip-rule="evenodd" d="m4.61 58.606.06-3.653-.035-47.73-.013-3.686-3.613.141-.046 54.736 3.647.192zM33.9 36.187l3.568.214-.09-10.678-3.482.052.004 10.412zM4.622 3.537l7.318.047L11.932 0 4.633.026l-.011 3.51z" fill="#F8B050"/><path fill-rule="evenodd" clip-rule="evenodd" d="m11.956 58.593-7.346.013.202 3.59 7.03.01.114-3.613zM11.937 7.319l3.619-.2.291.001-.258-3.424-3.65-.112-.002 3.735zM11.956 58.592l3.69-.062.01-3.413-3.813.095.113 3.38zM26.388 14.673l-3.42-.092-.061 3.658.554-.008 3.038-.008-.111-3.55zM19.242 14.569l3.727.011-.087-3.467-3.537-.008-.103 3.464zM26.872 43.944l3.282-.023.125-3.654-3.424-.064.017 3.741zM19.293 51.025l.149.453 3.366-.348.086-3.301-3.438-.016-.163 3.212z" fill="#F8B050"/><path fill-rule="evenodd" clip-rule="evenodd" d="m19.348 10.666-.103-3.332-3.398-.214.19 3.536 3.31.01zM33.909 25.415l-.11-3.31-3.377.027.026 3.248 3.46.035zM30.28 40.267l3.303-.116.065-3.37-3.382.15.014 3.336zM30.268 21.65l-.111-3.121-3.33-.166.083 3.277 3.358.01zM22.93 47.203l3.386-.038-.032-2.852-3.376-.18.022 3.07zM19.113 54.438l.329-2.96-3.393.17-.1 2.852 3.164-.063z" fill="#F8B050"/></svg>