<svg width="37" height="63" fill="none" xmlns="http://www.w3.org/2000/svg"><path fill-rule="evenodd" clip-rule="evenodd" d="m25.659 7.477-.115 3.57-3.55-.005-.064-3.502 3.729-.063zm-7.484 3.703 3.67-.035-.014 3.44-3.005.004-.651-3.409zm-3.615 6.892-3.376-.18-.032-2.852 3.387-.038 3.687-.162.007 3.262-3.673-.03zm.009 3.951-3.52-.02-.057-3.64 3.59.044-.013 3.616zm-3.692 18.138-3.296-.074.161-3.427 3.159-.06-.024 3.56zM32.8 7.25l-7.14.226-.033-.484-3.815.095c-1.804.291-2.18-.083-3.456.68l3.165-.062-.1 2.851-3.393.17.148.453-.163 3.212-3.439-.015-3.587.26-.39 3.623.018 3.742.318 3.64-3.73-.368-3.382.15.065-3.37-.386 3.512-3.499.24 3.568.212 3.694-.239-.015 10.608c-.627-.019-1.313-.085-1.935-.015l-1.753.417 3.462.036.025 3.248-3.376.027.006.104 3.524.351 3.358.01.084 3.277.284-3.7 3.711-.006-.012 3.748 3.547.104.054 3.648 3.576-.062.065 3.47-3.744.056-.002.439 3.31.01.19 3.537h.292l.052-3.886 3.627-.014-.06 3.7 7.302.096-.035-47.73zM3.559 36.79l1.753-.417c.622-.07 1.308-.004 1.934.015l.016-10.608-3.694.24.004 10.412-3.481.052 3.417.23.168 3.491-.006-.104-.11-3.31zm7.083 7.053-3.33-.166 3.439.387.33 3.47-.112-3.551 3.038-.007.554-.008-.061 3.658 3.726.011-.054-3.648-3.547-.104.012-3.748-3.711.006-.284 3.7zM32.858 3.6l-7.346.013.114 3.38.032.484 7.14-.225.06-3.652zm-.024 51.382-7.303-.095-.002 3.734 7.317.047-.012-3.686zm-10.921.104 3.619-.2.06-3.7-3.627.014-.052 3.886zm-7.33-36.68-3.591-.042.057 3.64 3.52.02.013-3.617zM25.657 7.478l-3.728.063.065 3.502 3.549.005.114-3.57zm-7.432 40.16-.103 3.462 3.744-.055-.065-3.47-3.576.062zm-7.612-25.635-3.425-.064.014 3.336 3.729.367-.318-3.64zm3.925-7 .021 3.07 3.673.03-.007-3.262-3.687.162zm3.636-3.822.651 3.41 3.005-.006.014-3.439-3.67.035zM10.901 36.6l-3.159.06-.161 3.427 3.296.074.024-3.56z" fill="#F8C850"/><path fill-rule="evenodd" clip-rule="evenodd" d="m32.858 3.599-.059 3.652.035 47.73.012 3.686 3.614-.14.046-54.736-3.648-.192zM3.568 26.018 0 25.805l.09 10.678 3.482-.052-.004-10.413zM32.846 58.668l-7.318-.047.008 3.584 7.298-.027.012-3.51z" fill="#F8B050"/><path fill-rule="evenodd" clip-rule="evenodd" d="m25.512 3.612 7.346-.013-.201-3.59L25.626 0l-.114 3.612zM25.532 54.887l-3.619.199h-.291l.258 3.424 3.649.111.003-3.734zM25.512 3.612l-3.69.062-.01 3.413 3.814-.094-.114-3.38zM11.08 47.533l3.42.092.06-3.658-.552.008-3.039.007.111 3.55z" fill="#F8B050"/><path fill-rule="evenodd" clip-rule="evenodd" d="m18.226 47.636-3.726-.012.086 3.467 3.537.008.103-3.463zM10.596 18.26l-3.282.023-.125 3.654 3.425.064-.018-3.741zM18.175 11.18l-.148-.453-3.367.348-.087 3.301 3.44.015.162-3.211zM18.12 51.538l.103 3.332 3.399.215-.19-3.537-3.311-.01zM3.56 36.79l.11 3.31 3.376-.027-.025-3.248-3.462-.036zM7.189 21.938l-3.304.116-.065 3.37 3.383-.15-.014-3.337zM7.2 40.556l.111 3.12 3.33.166-.083-3.277-3.358-.01zM14.539 15.002l-3.387.037.032 2.853 3.376.18-.021-3.07zM18.355 7.768l-.328 2.959 3.393-.17.1-2.851-3.165.062z" fill="#F8B050"/></svg>