<?xml version="1.0" encoding="UTF-8"?>
<!DOCTYPE svg PUBLIC "-//W3C//DTD SVG 1.1//EN" "http://www.w3.org/Graphics/SVG/1.1/DTD/svg11.dtd">
<!-- Creator: CorelDRAW -->
<svg xmlns="http://www.w3.org/2000/svg" xml:space="preserve" width="67.7332mm" height="25.4mm" version="1.1" style="shape-rendering:geometricPrecision; text-rendering:geometricPrecision; image-rendering:optimizeQuality; fill-rule:evenodd; clip-rule:evenodd"
viewBox="0 0 6773.32 2540"
 xmlns:xlink="http://www.w3.org/1999/xlink"
 xmlns:xodm="http://www.corel.com/coreldraw/odm/2003">
 <defs>
  <style type="text/css">
   <![CDATA[
    .str1 {stroke:#ED3237;stroke-width:16.93;stroke-miterlimit:22.9256}
    .str0 {stroke:#660911;stroke-width:16.93;stroke-miterlimit:22.9256}
    .fil1 {fill:#ED3237}
    .fil0 {fill:#660911}
    .fil2 {fill:white;fill-rule:nonzero}
   ]]>
  </style>
 </defs>
 <g id="Camada_x0020_1">
  <metadata id="CorelCorpID_0Corel-Layer"/>
  <g id="_2802646878464">
   <rect class="fil0 str0" transform="matrix(1.14725 6.60891E-05 -5.77303E-05 1.05165 49.2064 33.7606)" width="186.27" height="203.2"/>
   <rect class="fil1 str1" x="47.03" y="33.77" width="198.06" height="198.06"/>
  </g>
  <path class="fil2" d="M90.2 71.93l40.06 0 0 20.05 39.75 0 0 -20.05 40.06 0 0 20.05 -20.05 0 0 20.01 -20.01 0 0 39.75 20.01 0 0 20.01 20.05 0 0 20.05 -40.06 0 0 -20.05 -39.75 0 0 20.05 -40.06 0 0 -20.05 20.05 0 0 -20.01 20.01 0 0 -39.75 -20.01 0 0 -20.01 -20.05 0 0 -20.05z"/>
 </g>
</svg>
