<svg width="585" height="689" viewBox="0 0 585 689" fill="none" xmlns="http://www.w3.org/2000/svg">
    <path fill-rule="evenodd" clip-rule="evenodd"
        d="M584 102.848V106.369V113.411V116.932V118.212V121.733V128.775V132.296V133.577V137.098V144.14V147.661V148.941V152.462V159.504V163.025V164.306V167.827V174.869V178.389V179.67V183.191V190.233V193.754V195.035V198.555V205.598V209.118V210.399V213.92V220.962V224.483V225.764V229.285V236.327V239.848V241.128V244.649V251.691V255.212V256.493V260.014V267.056V270.577V271.857V275.378V282.42V285.941V287.221V290.743V297.785V301.306V302.586V306.107V313.149V316.67V317.95V321.471V328.514V332.034V333.315V336.836V343.878V347.399V348.679V352.2V359.243V362.763V364.044V367.565V374.607V378.128V379.408V382.929V389.971V393.492V394.773V398.294V405.336V408.857V410.137V413.659V420.701V424.222V425.502V429.023V436.065V439.586V440.866V444.387V451.43V454.95V456.231V459.752V466.794V470.315V471.595V475.116V482.159V485.679V486.96V490.481V497.523V501.044V502.324V505.845V512.887V516.408V517.689V521.21V528.252V531.773V533.053V536.574V543.616V547.137V548.418V551.939V558.981V562.502V563.782V567.303V574.345V577.866V579.147V582.668V589.71V593.231V594.511V598.032V605.074V608.595V609.876V613.397V620.439V623.96V625.24V628.761V635.803V639.324V640.605V644.125V651.168V654.689V655.969V659.49V666.532V670.053V671.333V674.854V681.896V685.418V686.698V687.818H1V686.698V685.418V681.896V674.854V671.333V670.053V666.532V659.49V655.969V654.689V651.168V644.125V640.605V639.324V635.803V628.761V625.24V623.96V620.439V613.397V609.876V608.595V605.074V598.032V594.511V593.231V589.71V582.668V579.147V577.866V574.345V567.303V563.782V562.502V558.981V551.939V548.418V547.137V543.616V536.574V533.053V531.773V528.252V521.21V517.689V516.408V512.887V505.845V502.324V501.044V497.523V490.481V486.96V485.679V482.159V475.116V471.595V470.315V466.794V459.752V456.231V454.95V451.43V444.387V440.866V439.586V436.065V429.023V425.502V424.222V420.701V413.659V410.137V408.857V405.336V398.294V394.773V393.492V389.971V382.929V379.408V378.128V374.607V367.565V364.044V362.763V359.243V352.2V348.679V347.399V343.878V336.836V333.315V332.034V328.514V321.471V317.95V316.67V313.149V306.107V302.586V301.306V297.785V290.743V287.221V285.941V282.42V275.378V271.857V270.577V267.056V260.014V256.493V255.212V251.691V244.649V241.128V239.848V236.327V229.285V225.764V224.483V220.962V213.92V210.399V209.118V205.598V198.555V195.035V193.754V190.233V183.191V179.67V178.389V174.869V167.827V164.306V163.025V159.504V152.462V148.941V147.661V144.14V137.098V133.577V132.296V128.775V121.733V118.212V116.932V113.411V106.369V102.848V101.567V98.0465V91.0041V87.4835V86.2026V82.682V75.6396V72.119V70.8381V67.3175V60.2751V56.7544V55.4736V51.9529V44.9105V41.3899V40.1094V36.5884V29.5464V26.0254V24.7449V21.2239V14.1818V10.6609V9.38032V5.85935V1H584V5.85935V9.38032V10.6609V14.1818V21.2239V24.7449V26.0254V29.5464V36.5884V40.1094V41.3899V44.9105V51.9529V55.4736V56.7544V60.2751V67.3175V70.8381V72.119V75.6396V82.682V86.2026V87.4835V91.0041V98.0465V101.567V102.848ZM584 101.567V102.848V101.567ZM1 485.679V486.96V485.679ZM584 685.418V686.698V685.418ZM584 24.7449V26.0254V24.7449ZM1 685.418V686.698V685.418ZM584 670.053V671.333V670.053ZM1 670.053V671.333V670.053ZM584 654.689V655.969V654.689ZM1 654.689V655.969V654.689ZM584 639.324V640.605V639.324ZM1 639.324V640.605V639.324ZM584 623.96V625.24V623.96ZM584 9.38032V10.6609V9.38032ZM1 623.96V625.24V623.96ZM584 608.595V609.876V608.595ZM1 608.595V609.876V608.595ZM584 593.231V594.511V593.231ZM1 593.231V594.511V593.231ZM584 577.866V579.147V577.866ZM1 577.866V579.147V577.866ZM584 562.502V563.782V562.502ZM1 562.502V563.782V562.502ZM584 547.137V548.418V547.137ZM1 547.137V548.418V547.137ZM584 531.773V533.053V531.773ZM1 531.773V533.053V531.773ZM584 516.408V517.689V516.408ZM1 516.408V517.689V516.408ZM584 501.044V502.324V501.044ZM1 501.044V502.324V501.044ZM584 485.679V486.96V485.679ZM584 470.315V471.595V470.315ZM1 470.315V471.595V470.315ZM584 454.95V456.231V454.95ZM1 454.95V456.231V454.95ZM584 439.586V440.866V439.586ZM1 439.586V440.866V439.586ZM584 424.222V425.502V424.222ZM1 424.222V425.502V424.222ZM584 408.857V410.137V408.857ZM1 408.857V410.137V408.857ZM584 393.492V394.773V393.492ZM1 393.492V394.773V393.492ZM584 378.128V379.408V378.128ZM1 378.128V379.408V378.128ZM584 362.763V364.044V362.763ZM1 362.763V364.044V362.763ZM584 347.399V348.679V347.399ZM1 347.399V348.679V347.399ZM584 332.034V333.315V332.034ZM1 332.034V333.315V332.034ZM584 316.67V317.95V316.67ZM1 316.67V317.95V316.67ZM584 301.306V302.586V301.306ZM1 301.306V302.586V301.306ZM584 285.941V287.221V285.941ZM1 285.941V287.221V285.941ZM584 270.577V271.857V270.577ZM1 270.577V271.857V270.577ZM584 255.212V256.493V255.212ZM1 255.212V256.493V255.212ZM584 239.848V241.128V239.848ZM1 239.848V241.128V239.848ZM584 224.483V225.764V224.483ZM1 224.483V225.764V224.483ZM584 209.118V210.399V209.118ZM1 209.118V210.399V209.118ZM584 193.754V195.035V193.754ZM1 193.754V195.035V193.754ZM584 178.389V179.67V178.389ZM1 178.389V179.67V178.389ZM584 163.025V164.306V163.025ZM1 163.025V164.306V163.025ZM584 147.661V148.941V147.661ZM1 147.661V148.941V147.661ZM584 132.296V133.577V132.296ZM1 132.296V133.577V132.296ZM584 116.932V118.212V116.932ZM1 116.932V118.212V116.932ZM1 101.567V102.848V101.567ZM584 86.2026V87.4835V86.2026ZM1 86.2026V87.4835V86.2026ZM584 70.8381V72.119V70.8381ZM1 70.8381V72.119V70.8381ZM584 55.4736V56.7544V55.4736ZM1 55.4736V56.7544V55.4736ZM584 40.1094V41.3899V40.1094ZM1 40.1094V41.3899V40.1094ZM1 24.7449V26.0254V24.7449ZM1 9.38032V10.6609V9.38032Z"
        stroke="#6870D8" stroke-width="0" stroke-miterlimit="22.9256" />
    <path fill-rule="evenodd" clip-rule="evenodd"
        d="M397.345 206C401.08 207.217 404.706 208.66 408.203 210.31H175.861C179.358 208.66 182.984 207.217 186.719 206H397.345ZM417.551 215.403C419.724 216.756 421.832 218.194 423.868 219.713H160.196C162.232 218.194 164.34 216.756 166.513 215.403H417.551ZM430.095 224.807C431.643 226.193 433.14 227.631 434.58 229.117H323.822H149.484C150.924 227.631 152.421 226.193 153.969 224.807H430.095ZM439.146 234.21C440.307 235.613 441.423 237.05 442.49 238.521H141.575C142.641 237.05 143.757 235.613 144.918 234.21H439.146ZM445.908 243.614C446.784 245.025 447.619 246.462 448.407 247.924H135.657C136.445 246.462 137.28 245.025 138.156 243.614H445.908ZM450.935 253.017C451.578 254.435 452.181 255.872 452.741 257.327H131.323C131.883 255.872 132.486 254.435 133.129 253.017H450.935ZM454.51 262.42C454.951 263.843 455.356 265.279 455.717 266.731H128.347C128.708 265.279 129.112 263.843 129.553 262.42H454.51ZM456.809 271.824C457.067 273.249 457.286 274.686 457.464 276.134H126.6C126.777 274.686 126.998 273.249 127.254 271.824H456.809ZM457.931 281.227C458.015 282.654 458.056 284.092 458.061 285.537H126.003C126.008 284.092 126.049 282.654 126.133 281.227H457.931ZM458.064 290.63V294.941H126V290.63H458.064ZM458.064 300.034V304.344H126V300.034H458.064ZM458.064 309.437V313.748H126V309.437H458.064ZM458.064 318.841V323.151H126V318.841H458.064ZM458.064 328.244V332.554H126V328.244H458.064ZM458.064 337.647V341.957H126V337.647H458.064ZM458.064 347.051V351.361H126V347.051H458.064ZM458.064 356.454V360.764H126V356.454H458.064ZM458.064 365.858V370.167H126V365.858H458.064ZM458.064 375.261V379.571H126V375.261H458.064ZM458.064 384.664V388.974H126V384.664H458.064ZM458.064 394.068V398.378H126V394.068H458.064ZM458.064 403.471V407.781H126V403.471H458.064ZM458.064 412.875V417.184H126V412.875H458.064ZM458.064 422.278V426.588H126V422.278H458.064ZM458.064 431.681V435.991H126V431.681H458.064ZM458.064 441.085V445.394H126V441.085H458.064ZM458.064 450.488V454.798H126V450.488H458.064ZM458.064 459.891V464.201H126V459.891H458.064ZM458.064 469.295V473.605H126V469.295H458.064ZM458.064 478.698V483.008H126V478.698H458.064ZM458.064 488.102V492.411H126V488.102H458.064ZM458.045 497.505C458.013 498.951 457.941 500.387 457.832 501.815H126.232C126.123 500.387 126.051 498.951 126.019 497.505H458.045ZM457.273 506.908C457.067 508.356 456.82 509.793 456.536 511.218H127.529C127.243 509.793 126.997 508.356 126.791 506.908H457.273ZM455.34 516.312C454.948 517.763 454.516 519.2 454.045 520.621H130.019C129.548 519.2 129.116 517.763 128.724 516.312H455.34ZM452.161 525.715C451.566 527.171 450.929 528.608 450.251 530.025H133.813C133.135 528.608 132.498 527.171 131.902 525.715H452.161ZM447.592 535.118C446.762 536.58 445.888 538.018 444.971 539.428H139.093C138.176 538.018 137.301 536.58 136.472 535.118H447.592ZM441.385 544.522C440.265 545.994 439.097 547.431 437.882 548.832H146.182C144.967 547.431 143.799 545.994 142.679 544.522H441.385ZM433.092 553.925C431.576 555.415 430.003 556.853 428.376 558.235H155.688C154.061 556.853 152.488 555.415 150.972 553.925H433.092ZM421.788 563.329C419.611 564.857 417.359 566.296 415.037 567.639H169.027C166.705 566.296 164.453 564.857 162.276 563.329H421.788ZM404.81 572.732C400.749 574.451 396.53 575.898 392.18 577.042H191.884C187.533 575.898 183.315 574.451 179.254 572.732H404.81Z"
        fill="#8890F8" />
    <path
        d="M457.564 43H126.437C102.999 43 84 62.34 84 86.197V123.803C84 147.66 102.999 167 126.437 167H457.564C481.001 167 500 147.66 500 123.803V86.197C500 62.34 481.001 43 457.564 43Z"
        fill="white" stroke="#EF2D2D" stroke-width="0.639874" stroke-miterlimit="22.9256" />
    <path fill-rule="evenodd" clip-rule="evenodd"
        d="M119.391 43H464.209C483.675 43 499.6 58.9258 499.6 78.3911V102.164H84.0004V78.3911C84.0004 58.9258 99.9262 43 119.391 43V43Z"
        fill="#F8C850" stroke="#EF2D2D" stroke-width="0.639874" stroke-miterlimit="22.9256" />
    <path fill-rule="evenodd" clip-rule="evenodd"
        d="M131.41 76.6271L134.92 76.6195L134.911 80.1182L138.41 80.111V87.1258L134.911 87.1168L134.92 90.6159H127.485L127.913 87.1168L124.413 87.1243L124.421 80.1174L120.936 80.1243L120.93 87.1088L120.931 94.0983L127.921 94.0991H138.395L155.866 87.1232L155.859 80.1194L152.374 80.1118V76.6335L148.871 76.6328V73.1416H131.41V76.6271V76.6271Z"
        fill="#F8685F" />
    <path fill-rule="evenodd" clip-rule="evenodd"
        d="M138.395 94.0988V97.5828C142.66 98.714 140.755 96.8084 141.886 101.074H152.361C154.215 96.4788 152.513 99.341 156.905 96.89L162.834 94.0913V87.1086H159.343V80.1259L155.859 80.1191L155.866 87.123L138.395 94.0988V94.0988Z"
        fill="#D04038" />
    <path fill-rule="evenodd" clip-rule="evenodd"
        d="M138.395 97.5833V101.074V104.566V108.057H148.869V104.566H152.361H155.852H159.343V101.074H162.834V94.0918L156.905 96.8905C152.513 99.3416 154.215 96.4793 152.361 101.074H141.886C140.755 96.8089 142.66 98.7145 138.395 97.5833V97.5833Z"
        fill="#686058" />
    <path fill-rule="evenodd" clip-rule="evenodd"
        d="M152.361 108.057H148.869V111.548C137.628 111.799 144.714 112.41 140.812 113.964C136.706 115.6 136.274 115.039 131.413 115.039V118.531H148.869V115.039H155.852V111.548H159.343V104.565H155.852V108.057H152.361Z"
        fill="#B8B8A0" />
    <path fill-rule="evenodd" clip-rule="evenodd"
        d="M131.413 111.548H127.921V115.039H131.413C136.274 115.039 136.706 115.6 140.812 113.964C144.714 112.41 137.628 111.799 148.869 111.548V108.057H138.395V111.548H131.413Z"
        fill="#E0E0C8" />
    <path fill-rule="evenodd" clip-rule="evenodd"
        d="M117.447 101.074H120.938V104.566H124.43H127.921V101.074V97.5833L120.939 97.5829L120.931 94.0986L117.447 94.0918V101.074V101.074Z"
        fill="#686058" />
    <path fill-rule="evenodd" clip-rule="evenodd" d="M117.447 104.565V101.074V94.0911V87.1084H113.956V104.565H117.447Z"
        fill="#484038" />
    <path fill-rule="evenodd" clip-rule="evenodd" d="M162.834 94.0911V101.074V104.565H166.326V87.1084H162.834V94.0911Z"
        fill="#484038" />
    <path fill-rule="evenodd" clip-rule="evenodd"
        d="M127.921 101.074V104.566H131.413V108.057H134.903V104.566H138.395V101.074H134.903V97.583H131.413V101.074H127.921Z"
        fill="#F0F8F8" />
    <path fill-rule="evenodd" clip-rule="evenodd" d="M148.869 118.531H131.413V122.022H148.869V118.531Z"
        fill="#484038" />
    <path fill-rule="evenodd" clip-rule="evenodd" d="M131.41 73.1416H148.871L148.868 69.6523H131.413L131.41 73.1416Z"
        fill="#484038" />
    <path fill-rule="evenodd" clip-rule="evenodd" d="M127.913 87.1167H134.911V80.1182H127.913V87.1167Z"
        fill="#F0F8F8" />
    <path fill-rule="evenodd" clip-rule="evenodd" d="M127.921 97.5826H131.413H134.903H138.395V94.0986H127.921V97.5826Z"
        fill="#686058" />
    <path fill-rule="evenodd" clip-rule="evenodd" d="M134.911 87.1172H127.913L127.485 90.6163H134.92L134.911 87.1172Z"
        fill="#F8A098" />
    <path fill-rule="evenodd" clip-rule="evenodd" d="M134.911 87.1171L138.41 87.1262V80.1113L134.911 80.1185V87.1171Z"
        fill="#F8A098" />
    <path fill-rule="evenodd" clip-rule="evenodd"
        d="M127.913 87.1165V80.118L124.421 80.1172L124.413 87.1241L127.913 87.1165V87.1165Z" fill="#F8A098" />
    <path fill-rule="evenodd" clip-rule="evenodd"
        d="M127.913 80.1179H134.911L134.92 76.6191L131.41 76.6267L127.906 76.6331L127.913 80.1179V80.1179Z"
        fill="#F8A098" />
    <path fill-rule="evenodd" clip-rule="evenodd" d="M131.413 111.548H138.395V108.057H134.904H131.413V111.548Z"
        fill="#686058" />
    <path fill-rule="evenodd" clip-rule="evenodd" d="M131.413 118.531V115.039H127.921H124.43V118.531H131.413Z"
        fill="#484038" />
    <path fill-rule="evenodd" clip-rule="evenodd" d="M148.869 118.531H155.852V115.039H148.869V118.531Z"
        fill="#484038" />
    <path fill-rule="evenodd" clip-rule="evenodd" d="M162.834 87.1087V80.126H159.343V87.1087H162.834Z" fill="#484038" />
    <path fill-rule="evenodd" clip-rule="evenodd" d="M120.938 111.548V108.057V104.565H117.447V111.548H120.938Z"
        fill="#484038" />
    <path fill-rule="evenodd" clip-rule="evenodd" d="M159.343 111.548H162.834V104.565H159.343V111.548Z"
        fill="#484038" />
    <path fill-rule="evenodd" clip-rule="evenodd"
        d="M152.374 76.6335L155.852 76.635V73.1435L148.871 73.1416V76.6328L152.374 76.6335V76.6335Z" fill="#484038" />
    <path fill-rule="evenodd" clip-rule="evenodd"
        d="M124.427 76.6328L127.906 76.6335L131.41 76.6271V73.1416L124.43 73.1442L124.427 76.6328Z" fill="#484038" />
    <path fill-rule="evenodd" clip-rule="evenodd" d="M117.447 87.1086H120.93L120.936 80.124L117.447 80.1266V87.1086Z"
        fill="#484038" />
    <path fill-rule="evenodd" clip-rule="evenodd"
        d="M127.921 97.5834V94.0994L120.931 94.0986L120.939 97.583L127.921 97.5834V97.5834Z" fill="#D04038" />
    <path fill-rule="evenodd" clip-rule="evenodd" d="M117.447 94.0911L120.931 94.0979L120.93 87.1084H117.447V94.0911Z"
        fill="#D04038" />
    <path fill-rule="evenodd" clip-rule="evenodd" d="M127.921 111.548H131.413V108.057H127.921V111.548Z"
        fill="#888078" />
    <path fill-rule="evenodd" clip-rule="evenodd" d="M120.938 111.548H124.43V108.057H120.938V111.548Z" fill="#B8B8A0" />
    <path fill-rule="evenodd" clip-rule="evenodd" d="M159.343 104.566H162.834V101.074H159.343V104.566Z"
        fill="#888078" />
    <path fill-rule="evenodd" clip-rule="evenodd" d="M120.938 108.057H124.43V104.565H120.938V108.057Z" fill="#E0E0C8" />
    <path fill-rule="evenodd" clip-rule="evenodd" d="M117.447 104.566H120.938V101.074H117.447V104.566Z"
        fill="#E0E0C8" />
    <path fill-rule="evenodd" clip-rule="evenodd" d="M127.921 108.057H131.413V104.565H127.921V108.057Z"
        fill="#B8B8A0" />
    <path fill-rule="evenodd" clip-rule="evenodd" d="M134.903 108.057H138.395V104.565H134.903V108.057Z"
        fill="#B8B8A0" />
    <path fill-rule="evenodd" clip-rule="evenodd" d="M148.869 108.057H152.361V104.565H148.869V108.057Z"
        fill="#888078" />
    <path fill-rule="evenodd" clip-rule="evenodd" d="M127.921 101.074H131.413V97.583H127.921V101.074Z" fill="#B8B8A0" />
    <path fill-rule="evenodd" clip-rule="evenodd" d="M124.43 111.548H127.921V108.057H124.43V111.548Z" fill="#F0F8F8" />
    <path fill-rule="evenodd" clip-rule="evenodd" d="M124.43 115.04V111.549H120.938V115.04H124.43Z" fill="#484038" />
    <path fill-rule="evenodd" clip-rule="evenodd" d="M138.395 101.074V97.583H134.903V101.074H138.395Z" fill="#B8B8A0" />
    <path fill-rule="evenodd" clip-rule="evenodd" d="M155.852 115.04H159.343V111.549H155.852V115.04Z" fill="#484038" />
    <path fill-rule="evenodd" clip-rule="evenodd" d="M124.43 108.057H127.921V104.565H124.43V108.057Z" fill="#888078" />
    <path fill-rule="evenodd" clip-rule="evenodd" d="M152.361 108.057H155.852V104.565H152.361V108.057Z"
        fill="#E0E0C8" />
    <path fill-rule="evenodd" clip-rule="evenodd" d="M124.43 115.04H127.921V111.549H124.43V115.04Z" fill="#B8B8A0" />
    <path fill-rule="evenodd" clip-rule="evenodd"
        d="M155.859 80.1191L159.343 80.1259V76.6348H155.852L155.859 80.1191V80.1191Z" fill="#484038" />
    <path fill-rule="evenodd" clip-rule="evenodd"
        d="M120.936 80.1243L124.421 80.1175L124.427 76.6328L120.938 76.6351L120.936 80.1243V80.1243Z" fill="#484038" />
    <path fill-rule="evenodd" clip-rule="evenodd"
        d="M124.421 80.1175L127.913 80.1183L127.906 76.6336L124.427 76.6328L124.421 80.1175V80.1175Z" fill="#F8685F" />
    <path fill-rule="evenodd" clip-rule="evenodd"
        d="M155.859 80.1197L155.851 76.6353L152.374 76.6338V80.1121L155.859 80.1197Z" fill="#D04038" />
</svg>