<svg width="585" height="689" fill="none" xmlns="http://www.w3.org/2000/svg">
    <path fill-rule="evenodd" clip-rule="evenodd"
        d="M584 102.848V687.818H1V1h583V102.848zm0-1.281v1.281-1.281zM1 485.679v1.281-1.281zm583 199.739v1.28-1.28zm0-660.673v1.28-1.28zM1 685.418v1.28-1.28zm583-15.365v1.28-1.28zm-583 0v1.28-1.28zm583-15.364v1.28-1.28zm-583 0v1.28-1.28zm583-15.365v1.281-1.281zm-583 0v1.281-1.281zm583-15.364v1.28-1.28zm0-614.58v1.28-1.28zM1 623.96v1.28-1.28zm583-15.365v1.281-1.281zm-583 0v1.281-1.281zm583-15.364v1.28-1.28zm-583 0v1.28-1.28zm583-15.365v1.281-1.281zm-583 0v1.281-1.281zm583-15.364v1.28-1.28zm-583 0v1.28-1.28zm583-15.365v1.281-1.281zm-583 0v1.281-1.281zm583-15.364v1.28-1.28zm-583 0v1.28-1.28zm583-15.365v1.281-1.281zm-583 0v1.281-1.281zm583-15.364v1.28-1.28zm-583 0v1.28-1.28zm583-15.365v1.281-1.281zm0-15.364v1.28-1.28zm-583 0v1.28-1.28zm583-15.365v1.281-1.281zm-583 0v1.281-1.281zm583-15.364v1.28-1.28zm-583 0v1.28-1.28zm583-15.364v1.28-1.28zm-583 0v1.28-1.28zm583-15.365v1.28-1.28zm-583 0v1.28-1.28zm583-15.365v1.281-1.281zm-583 0v1.281-1.281zm583-15.364v1.28-1.28zm-583 0v1.28-1.28zm583-15.365v1.281-1.281zm-583 0v1.281-1.281zm583-15.364v1.28-1.28zm-583 0v1.28-1.28zm583-15.365v1.281-1.281zm-583 0v1.281-1.281zm583-15.364v1.28-1.28zm-583 0v1.28-1.28zm583-15.364v1.28-1.28zm-583 0v1.28-1.28zm583-15.365v1.28-1.28zm-583 0v1.28-1.28zm583-15.364v1.28-1.28zm-583 0v1.28-1.28zm583-15.365v1.281-1.281zm-583 0v1.281-1.281zm583-15.364v1.28-1.28zm-583 0v1.28-1.28zm583-15.365v1.281-1.281zm-583 0v1.281-1.281zm583-15.365v1.281-1.281zm-583 0v1.281-1.281zm583-15.364v1.281-1.281zm-583 0v1.281-1.281zm583-15.365v1.281-1.281zm-583 0v1.281-1.281zm583-15.364v1.281-1.281zm-583 0v1.281-1.281zm583-15.364v1.28-1.28zm-583 0v1.28-1.28zm583-15.365v1.281-1.281zm-583 0v1.281-1.281zm583-15.364v1.28-1.28zm-583 0v1.28-1.28zm0-15.365v1.281-1.281zm583-15.364v1.28-1.28zm-583 0v1.28-1.28zm583-15.365v1.281-1.28zm-583 0v1.281-1.28zm583-15.364v1.28-1.28zm-583 0v1.28-1.28zm583-15.365v1.28-1.28zm-583 0v1.28-1.28zm0-15.364v1.28-1.28zM1 9.38v1.28-1.28z"
        fill="#F0F8F8" stroke="#6870D8" stroke-width=".64" stroke-miterlimit="22.926" />
    <path fill-rule="evenodd" clip-rule="evenodd"
        d="M397.345 206a92.88 92.88 0 0 1 10.858 4.31H175.861a92.88 92.88 0 0 1 10.858-4.31h210.626zm20.206 9.403a90.988 90.988 0 0 1 6.317 4.31H160.196a90.988 90.988 0 0 1 6.317-4.31h251.038zm12.544 9.404a87.8 87.8 0 0 1 4.485 4.31H149.484a87.8 87.8 0 0 1 4.485-4.31h276.126zm9.051 9.403a85.594 85.594 0 0 1 3.344 4.311H141.575a84.996 84.996 0 0 1 3.343-4.311h294.228zm6.762 9.404a81.365 81.365 0 0 1 2.499 4.31h-312.75a81.365 81.365 0 0 1 2.499-4.31h307.752zm5.027 9.403a80.14 80.14 0 0 1 1.806 4.31H131.323a80.14 80.14 0 0 1 1.806-4.31h317.806zm3.575 9.403a78.743 78.743 0 0 1 1.207 4.311h-327.37a78.735 78.735 0 0 1 1.206-4.311H454.51zm2.299 9.404a76.76 76.76 0 0 1 .655 4.31H126.6c.177-1.448.398-2.885.654-4.31h329.555zm1.122 9.403c.084 1.427.125 2.865.13 4.31H126.003c.005-1.445.046-2.883.13-4.31h331.798zm.133 9.403v4.311H126v-4.311h332.064zm0 9.404v4.31H126v-4.31h332.064zm0 9.403v4.311H126v-4.311h332.064zm0 9.404v4.31H126v-4.31h332.064zm0 9.403v4.31H126v-4.31h332.064zm0 9.403v4.31H126v-4.31h332.064zm0 9.404v4.31H126v-4.31h332.064zm0 9.403v4.31H126v-4.31h332.064zm0 9.404v4.309H126v-4.309h332.064zm0 9.403v4.31H126v-4.31h332.064zm0 9.403v4.31H126v-4.31h332.064zm0 9.404v4.31H126v-4.31h332.064zm0 9.403v4.31H126v-4.31h332.064zm0 9.404v4.309H126v-4.309h332.064zm0 9.403v4.31H126v-4.31h332.064zm0 9.403v4.31H126v-4.31h332.064zm0 9.404v4.309H126v-4.309h332.064zm0 9.403v4.31H126v-4.31h332.064zm0 9.403v4.31H126v-4.31h332.064zm0 9.404v4.31H126v-4.31h332.064zm0 9.403v4.31H126v-4.31h332.064zm0 9.404v4.309H126v-4.309h332.064zm-.019 9.403a79.803 79.803 0 0 1-.213 4.31h-331.6a79.803 79.803 0 0 1-.213-4.31h332.026zm-.772 9.403a78.928 78.928 0 0 1-.737 4.31H127.529a77.052 77.052 0 0 1-.738-4.31h330.482zm-1.933 9.404a80.073 80.073 0 0 1-1.295 4.309H130.019a80.073 80.073 0 0 1-1.295-4.309H455.34zm-3.179 9.403a80.818 80.818 0 0 1-1.91 4.31H133.813a81.645 81.645 0 0 1-1.911-4.31h320.259zm-4.569 9.403a83.706 83.706 0 0 1-2.621 4.31H139.093a83.007 83.007 0 0 1-2.621-4.31h311.12zm-6.207 9.404a86.792 86.792 0 0 1-3.503 4.31h-291.7a86.792 86.792 0 0 1-3.503-4.31h298.706zm-8.293 9.403a88.031 88.031 0 0 1-4.716 4.31H155.688a88.031 88.031 0 0 1-4.716-4.31h282.12zm-11.304 9.404a91.445 91.445 0 0 1-6.751 4.31h-246.01a91.445 91.445 0 0 1-6.751-4.31h259.512zm-16.978 9.403a93.234 93.234 0 0 1-12.63 4.31H191.884a93.187 93.187 0 0 1-12.63-4.31H404.81z"
        fill="#8890F8" />
    <path
        d="M457.204 43H126.396C102.981 43 84 58.845 84 78.391v30.81c0 19.546 18.981 35.392 42.396 35.392h330.808c23.415 0 42.396-15.846 42.396-35.392v-30.81C499.6 58.845 480.619 43 457.204 43z"
        fill="#fff" stroke="#EF2D2D" stroke-width=".64" stroke-miterlimit="22.926" />
    <path fill-rule="evenodd" clip-rule="evenodd"
        d="M119.391 43h344.818c19.466 0 35.391 15.926 35.391 35.391v23.773H84V78.391C84 58.926 99.926 43 119.391 43z"
        fill="#F8C850" stroke="#EF2D2D" stroke-width=".64" stroke-miterlimit="22.926" />
    <path fill-rule="evenodd" clip-rule="evenodd"
        d="m131.41 76.627 3.51-.007-.009 3.498 3.499-.007v7.015l-3.499-.01.009 3.5h-7.435l.428-3.5-3.5.008.008-7.007-3.485.007-.006 6.985.001 6.99h17.464l17.471-6.976-.007-7.004-3.485-.007v-3.478l-3.503-.001v-3.491H131.41v3.485z"
        fill="#F8685F" />
    <path fill-rule="evenodd" clip-rule="evenodd"
        d="M138.395 94.099v3.484c4.265 1.131 2.36-.775 3.491 3.491h10.475c1.854-4.595.152-1.733 4.544-4.184l5.929-2.799V87.11h-3.491v-6.983l-3.484-.007.007 7.004-17.471 6.976z"
        fill="#D04038" />
    <path fill-rule="evenodd" clip-rule="evenodd"
        d="M138.395 97.583v10.474h10.474v-3.491h10.474v-3.492h3.491v-6.982l-5.929 2.799c-4.392 2.45-2.69-.412-4.544 4.183h-10.475c-1.131-4.265.774-2.36-3.491-3.49z"
        fill="#686058" />
    <path fill-rule="evenodd" clip-rule="evenodd"
        d="M152.361 108.057h-3.492v3.491c-11.241.251-4.155.862-8.057 2.416-4.106 1.636-4.538 1.075-9.399 1.075v3.492h17.456v-3.492h6.983v-3.491h3.491v-6.983h-3.491v3.492h-3.491z"
        fill="#B8B8A0" />
    <path fill-rule="evenodd" clip-rule="evenodd"
        d="M131.413 111.548h-3.492v3.491h3.492c4.861 0 5.293.561 9.399-1.075 3.902-1.554-3.184-2.165 8.057-2.416v-3.491h-10.474v3.491h-6.982z"
        fill="#E0E0C8" />
    <path fill-rule="evenodd" clip-rule="evenodd"
        d="M117.447 101.074h3.491v3.492H127.921v-6.982l-6.982-.001-.008-3.484-3.484-.007v6.982z" fill="#686058" />
    <path fill-rule="evenodd" clip-rule="evenodd"
        d="M117.447 104.565V87.108h-3.491v17.457h3.491zM162.834 94.091v10.474h3.492V87.108h-3.492v6.983z"
        fill="#484038" />
    <path fill-rule="evenodd" clip-rule="evenodd"
        d="M127.921 101.074v3.492h3.492v3.491h3.49v-3.491h3.492v-3.492h-3.492v-3.491h-3.49v3.491h-3.492z"
        fill="#F0F8F8" />
    <path fill-rule="evenodd" clip-rule="evenodd"
        d="M148.869 118.531h-17.456v3.491h17.456v-3.491zM131.41 73.142h17.461l-.003-3.49h-17.455l-.003 3.49z"
        fill="#484038" />
    <path fill-rule="evenodd" clip-rule="evenodd" d="M127.913 87.117h6.998v-6.999h-6.998v6.999z" fill="#F0F8F8" />
    <path fill-rule="evenodd" clip-rule="evenodd" d="M127.921 97.583h10.474v-3.484h-10.474v3.484z" fill="#686058" />
    <path fill-rule="evenodd" clip-rule="evenodd"
        d="M134.911 87.117h-6.998l-.428 3.5h7.435l-.009-3.5zM134.911 87.117l3.499.01V80.11l-3.499.007v7zM127.913 87.117v-6.999h-3.492l-.008 7.006 3.5-.007z"
        fill="#F8A098" />
    <path fill-rule="evenodd" clip-rule="evenodd" d="M127.913 80.118h6.998l.009-3.499-3.51.008-3.504.006.007 3.485z"
        fill="#F8A098" />
    <path fill-rule="evenodd" clip-rule="evenodd" d="M131.413 111.548h6.982v-3.491h-6.982v3.491z" fill="#686058" />
    <path fill-rule="evenodd" clip-rule="evenodd"
        d="M131.413 118.531v-3.492H124.43v3.492h6.983zM148.869 118.531h6.983v-3.492h-6.983v3.492zM162.834 87.109v-6.983h-3.491v6.983h3.491zM120.938 111.548V104.565h-3.491v6.983h3.491zM159.343 111.548h3.491v-6.983h-3.491v6.983zM152.374 76.633l3.478.002v-3.492l-6.981-.001v3.49l3.503.001zM124.427 76.633h3.479l3.504-.006v-3.485l-6.98.002-.003 3.489zM117.447 87.109h3.483l.006-6.985-3.489.003v6.982z"
        fill="#484038" />
    <path fill-rule="evenodd" clip-rule="evenodd"
        d="M127.921 97.583V94.1h-6.99l.008 3.484h6.982zM117.447 94.091l3.484.007-.001-6.99h-3.483v6.983z"
        fill="#D04038" />
    <path fill-rule="evenodd" clip-rule="evenodd" d="M127.921 111.548h3.492v-3.491h-3.492v3.491z" fill="#888078" />
    <path fill-rule="evenodd" clip-rule="evenodd" d="M120.938 111.548h3.492v-3.491h-3.492v3.491z" fill="#B8B8A0" />
    <path fill-rule="evenodd" clip-rule="evenodd" d="M159.343 104.566h3.491v-3.492h-3.491v3.492z" fill="#888078" />
    <path fill-rule="evenodd" clip-rule="evenodd"
        d="M120.938 108.057h3.492v-3.492h-3.492v3.492zM117.447 104.566h3.491v-3.492h-3.491v3.492z" fill="#E0E0C8" />
    <path fill-rule="evenodd" clip-rule="evenodd"
        d="M127.921 108.057h3.492v-3.492h-3.492v3.492zM134.903 108.057h3.492v-3.492h-3.492v3.492z" fill="#B8B8A0" />
    <path fill-rule="evenodd" clip-rule="evenodd" d="M148.869 108.057h3.492v-3.492h-3.492v3.492z" fill="#888078" />
    <path fill-rule="evenodd" clip-rule="evenodd" d="M127.921 101.074h3.492v-3.491h-3.492v3.491z" fill="#B8B8A0" />
    <path fill-rule="evenodd" clip-rule="evenodd" d="M124.43 111.548h3.491v-3.491h-3.491v3.491z" fill="#F0F8F8" />
    <path fill-rule="evenodd" clip-rule="evenodd" d="M124.43 115.04v-3.491h-3.492v3.491h3.492z" fill="#484038" />
    <path fill-rule="evenodd" clip-rule="evenodd" d="M138.395 101.074v-3.491h-3.492v3.491h3.492z" fill="#B8B8A0" />
    <path fill-rule="evenodd" clip-rule="evenodd" d="M155.852 115.04h3.491v-3.491h-3.491v3.491z" fill="#484038" />
    <path fill-rule="evenodd" clip-rule="evenodd" d="M124.43 108.057h3.491v-3.492h-3.491v3.492z" fill="#888078" />
    <path fill-rule="evenodd" clip-rule="evenodd" d="M152.361 108.057h3.491v-3.492h-3.491v3.492z" fill="#E0E0C8" />
    <path fill-rule="evenodd" clip-rule="evenodd" d="M124.43 115.04h3.491v-3.491h-3.491v3.491z" fill="#B8B8A0" />
    <path fill-rule="evenodd" clip-rule="evenodd"
        d="m155.859 80.12 3.484.006v-3.491h-3.491l.007 3.484zM120.936 80.124l3.485-.006.006-3.485-3.489.002-.002 3.49z"
        fill="#484038" />
    <path fill-rule="evenodd" clip-rule="evenodd" d="M124.421 80.118h3.492l-.007-3.484-3.479-.001-.006 3.485z"
        fill="#F8685F" />
    <path fill-rule="evenodd" clip-rule="evenodd" d="m155.859 80.12-.008-3.485-3.477-.001v3.478l3.485.008z"
        fill="#D04038" />
</svg>