<svg width="2044" height="1072" fill="none" xmlns="http://www.w3.org/2000/svg"><path fill-rule="evenodd" clip-rule="evenodd" d="M2.42 2.814h2040.32V1034.81l-42.08 36.8H30.668L.746 1049.05 2.42 2.814zm54.255 184.85H1391.78v736.749H56.675V187.664z" fill="#C81D23" stroke="#C81D23" stroke-width=".64" stroke-miterlimit="22.926"/><path fill-rule="evenodd" clip-rule="evenodd" d="M2039.46.045V1029.88h-590.42V.045h590.42zM56.675 187.664H1391.78v736.749H56.675V187.664zM.745.42H1449.04v1048.63H.746V.42z" fill="#E74349"/><path d="M131.037 117.775c22.326 0 40.425-18.099 40.425-40.425 0-22.325-18.099-40.424-40.425-40.424-22.326 0-40.425 18.099-40.425 40.424 0 22.326 18.099 40.425 40.425 40.425z" fill="#EDF1F0" stroke="#EDF1F0" stroke-width=".64" stroke-miterlimit="22.926"/><path d="M131.037 112.146c19.217 0 34.795-15.579 34.795-34.796s-15.578-34.795-34.795-34.795c-19.217 0-34.796 15.578-34.796 34.795 0 19.217 15.579 34.796 34.796 34.796z" fill="#67B8F8"/><path fill-rule="evenodd" clip-rule="evenodd" d="M119.346 54.764c2.422 4.621.112 13.758-5.159 20.409-5.272 6.65-11.509 8.296-13.931 3.675-2.422-4.62-.112-13.758 5.159-20.408 5.272-6.65 11.51-8.296 13.931-3.675z" fill="#FEFEFE" fill-opacity=".502" stroke="#FEFEFE" stroke-opacity=".502" stroke-width=".64" stroke-miterlimit="22.926"/><path d="M204.694 63.744c6.233 0 11.286-5.053 11.286-11.287 0-6.233-5.053-11.286-11.286-11.286-6.234 0-11.287 5.053-11.287 11.286 0 6.234 5.053 11.287 11.287 11.287z" fill="#EF2D2D" stroke="#fff" stroke-width="1.6" stroke-miterlimit="22.926"/><path fill-rule="evenodd" clip-rule="evenodd" d="M200.902 45.131c.785 1.5.036 4.463-1.674 6.62s-3.733 2.69-4.519 1.192c-.785-1.499-.036-4.462 1.674-6.62 1.71-2.157 3.733-2.69 4.519-1.192z" fill="#fff" fill-opacity=".502" stroke="#fff" stroke-opacity=".502" stroke-width=".64" stroke-miterlimit="22.926"/><path d="M244.141 63.744c6.233 0 11.286-5.053 11.286-11.287 0-6.233-5.053-11.286-11.286-11.286s-11.287 5.053-11.287 11.286c0 6.234 5.054 11.287 11.287 11.287z" fill="#F6DD2D" stroke="#fff" stroke-width="1.6" stroke-miterlimit="22.926"/><path fill-rule="evenodd" clip-rule="evenodd" d="M240.349 45.131c.786 1.5.036 4.463-1.674 6.62s-3.733 2.69-4.518 1.192c-.786-1.499-.037-4.462 1.673-6.62 1.71-2.157 3.733-2.69 4.519-1.192z" fill="#fff" fill-opacity=".502"/><path d="M283.588 63.744c6.233 0 11.286-5.053 11.286-11.287 0-6.233-5.053-11.286-11.286-11.286-6.234 0-11.287 5.053-11.287 11.286 0 6.234 5.053 11.287 11.287 11.287z" fill="#2CC340" stroke="#fff" stroke-width="2" stroke-miterlimit="22.926"/><path fill-rule="evenodd" clip-rule="evenodd" d="M279.796 45.131c.785 1.5.036 4.463-1.674 6.62s-3.733 2.69-4.519 1.192c-.785-1.499-.036-4.462 1.674-6.62 1.71-2.157 3.733-2.69 4.519-1.192z" fill="#fff" fill-opacity=".502"/><path fill-rule="evenodd" clip-rule="evenodd" d="m1457.48 73.819-12.37 12.6 4.25 962.991 8.62-19.17-.5-956.421z" fill="#D1353A"/><path d="m2039.78 75.504-584.42-1.425-12.46 10.565h-439.23l-64.316 67.45H1.066" stroke="#C81D23" stroke-width="11.2" stroke-miterlimit="22.926"/></svg>