<?xml version="1.0" encoding="UTF-8"?>
<!DOCTYPE svg PUBLIC "-//W3C//DTD SVG 1.1//EN" "http://www.w3.org/Graphics/SVG/1.1/DTD/svg11.dtd">
<!-- Creator: CorelDRAW -->
<svg xmlns="http://www.w3.org/2000/svg" xml:space="preserve" width="240.792mm" height="211.667mm" version="1.1" style="shape-rendering:geometricPrecision; text-rendering:geometricPrecision; image-rendering:optimizeQuality; fill-rule:evenodd; clip-rule:evenodd"
viewBox="0 0 24079.18 21166.66"
 xmlns:xlink="http://www.w3.org/1999/xlink"
 xmlns:xodm="http://www.corel.com/coreldraw/odm/2003">
 <defs>
  <style type="text/css">
   <![CDATA[
    .fil0 {fill:#E74049}
   ]]>
  </style>
 </defs>
 <g id="Camada_x0020_1">
  <metadata id="CorelCorpID_0Corel-Layer"/>
  <g id="_1522864188352">
   <path class="fil0" d="M14277.7 10769.38c-69.66,263.84 -215.24,552.9 -399.15,740.27 -53.22,54.22 -110.8,126.61 -188.49,184.39 -76.39,56.81 -137.36,102.59 -224.69,156.08 -532.1,325.94 -1253.64,319.91 -1783.91,-5.2 -187.73,-115.1 -312.14,-223.38 -456.37,-390.08l-117.6 -161.92c-91.86,-156.44 -183.61,-318.98 -229.12,-523.54 -1459.38,0 -2918.76,0 -4378.14,0 0,48.57 9.22,121.99 14.51,163.29 7.57,59.05 9.29,119.56 16.71,169.55 54.04,364.08 114.98,702.86 228.07,1050.4l251.16 663.24c72.42,169.42 156.73,331.86 245.69,490.9 126.72,226.54 276.14,460.89 431.59,669.08 148.19,198.47 222.94,279.72 372.19,449.08l133.41 145.99c34.52,45.23 271.6,260.82 327.93,315.53l454.64 366.63c37.77,28.48 70.37,54.3 106.45,79.81 675.68,477.7 1482.85,819.39 2314.99,987.01 704.22,141.86 1482.07,146.49 2189.25,29.01 434.65,-72.2 752.7,-163.07 1152.75,-311.98 47.27,-17.6 91.31,-32.76 134.43,-51.83 253.01,-111.88 307.75,-133.02 558.45,-262.82 21.39,-11.08 39.26,-18.89 61.01,-32.13l230.53 -133.53c276.34,-170.01 560.12,-360.94 802.94,-577.12 20.84,-18.55 30.73,-22.75 50.91,-42.23 65.53,-63.29 130.7,-114.01 194.56,-177.97 74.22,-74.34 293.48,-289.88 359.46,-368.68 154.54,-184.58 255.45,-305.04 404.01,-510.38 645.68,-892.47 1026,-1951.5 1122.48,-3110.85l-4380.65 0z"/>
   <path class="fil0" d="M10880.36 9905.78c94.21,-410.06 360.27,-729.86 584.5,-919.71 453.68,-384.11 1141.67,-515.36 1746.97,-280.18 336.59,130.77 645.88,379.86 832.4,674.7 51.53,81.47 86.01,154.57 134.09,247.06 29.65,57.04 84.91,251.42 102.77,276.2l4377.26 1.94c-50.75,-609.98 -180.75,-1222.8 -406.4,-1786.47 -70.38,-175.81 -141.5,-345.15 -225.65,-510.95l-62.22 -115.59c-66.7,-133.51 -260.89,-460.4 -342.24,-572.15 -113.42,-155.81 -347.03,-480.85 -485.2,-623.93l-175.19 -188.87c-48.49,-62.8 -375.35,-358.55 -473.18,-441.23 -35.68,-30.16 -66.67,-52.96 -103.88,-82.39l-647.04 -453.62c-87.59,-57.95 -391.34,-224.88 -470.56,-257.57 -44.71,-18.46 -81.95,-39.7 -124.91,-61.36 -290.27,-146.31 -751.31,-296.05 -1080.86,-383.87 -49.02,-13.07 -102.1,-21.84 -152.47,-33.8 -100.06,-23.75 -198.57,-38.96 -304.06,-60 -104.84,-20.92 -210.2,-30.36 -326.13,-46.41 -369.91,-51.2 -1020.4,-50.72 -1390.76,-1.08 -449.83,60.3 -762.6,113.69 -1203.76,260.97l-268.85 95.22c-398.47,142.15 -851.54,384.63 -1212.21,625.05 -203.55,135.69 -339.04,240.83 -523.96,390.44l-199.66 172.87c-92.91,90.24 -239.45,220.29 -321.52,313.48 -18.28,20.76 -21.47,29.93 -42.23,50.91 -261.44,264.23 -523.46,627.05 -716.06,934.94 -102.46,163.8 -175.65,294.29 -264.06,472.53l-59.44 118.36c-17.63,39.65 -39.72,87.76 -59.25,127.02l-107.54 256.53c-197.97,494.64 -347.99,1097.48 -392.63,1630.89 -4.38,52.38 -16.2,112.55 -16.2,170.07l4380.13 0z"/>
   <path class="fil0" d="M12457.99 9214.87c-153.38,18.05 -310.63,66.85 -427.17,134.09 -381.33,220.03 -628.08,620.2 -578.34,1107.17 59.43,582.01 582.38,1078.42 1240.61,1009.41 586,-61.43 1077.41,-580.09 1009.63,-1245.06 -44.18,-433.5 -338.34,-801.51 -746.15,-945.93 -148.01,-52.42 -328.02,-79.76 -498.58,-59.68z"/>
  </g>
 </g>
</svg>
