<svg width="18" height="18" viewBox="0 0 18 18" fill="none" xmlns="http://www.w3.org/2000/svg">
<path d="M17.3817 9.10251C17.3817 13.7412 13.6286 17.5 9.00089 17.5C4.3732 17.5 0.620117 13.7412 0.620117 9.10251C0.620117 4.46382 4.3732 0.705017 9.00089 0.705017C13.6286 0.705017 17.3817 4.46382 17.3817 9.10251Z" fill="#F2E6FA" stroke="black"/>
<path d="M8.88675 0.622905C13.37 0.561652 17.0636 3.89156 17.363 8.29194C17.063 8.3075 16.653 8.3262 16.1413 8.34633C14.6692 8.40424 12.3645 8.47359 9.43827 8.51357L2.93718 8.6024L0.881498 8.6305L0.628849 8.63395C0.827034 4.22502 4.42695 0.683836 8.88675 0.622905Z" fill="#E74349" stroke="black"/>
<rect x="0.120117" y="8.56866" width="17.7615" height="0.88975" fill="black"/>
<ellipse cx="9.08982" cy="9.19147" rx="2.22019" ry="2.22437" fill="black"/>
<ellipse rx="1.42092" ry="1.4236" transform="matrix(-1 0 0 1 9.00095 9.10249)" fill="#F2E6FA"/>
</svg>
